<svg xmlns="http://www.w3.org/2000/svg" xmlns:xlink="http://www.w3.org/1999/xlink" width="2000" zoomAndPan="magnify" viewBox="0 0 1500 1499.999933" height="2000" preserveAspectRatio="xMidYMid meet" version="1.0"><defs><g/><clipPath id="3348f88afb"><path d="M 89.621094 89.621094 L 1410.378906 89.621094 L 1410.378906 1410.378906 L 89.621094 1410.378906 Z M 89.621094 89.621094 " clip-rule="nonzero"/></clipPath><clipPath id="7792634225"><path d="M 164.621094 89.621094 L 1335.378906 89.621094 C 1355.269531 89.621094 1374.34375 97.523438 1388.410156 111.589844 C 1402.476562 125.65625 1410.378906 144.730469 1410.378906 164.621094 L 1410.378906 1335.378906 C 1410.378906 1355.269531 1402.476562 1374.34375 1388.410156 1388.410156 C 1374.34375 1402.476562 1355.269531 1410.378906 1335.378906 1410.378906 L 164.621094 1410.378906 C 144.730469 1410.378906 125.65625 1402.476562 111.589844 1388.410156 C 97.523438 1374.34375 89.621094 1355.269531 89.621094 1335.378906 L 89.621094 164.621094 C 89.621094 144.730469 97.523438 125.65625 111.589844 111.589844 C 125.65625 97.523438 144.730469 89.621094 164.621094 89.621094 Z M 164.621094 89.621094 " clip-rule="nonzero"/></clipPath><clipPath id="3e7ed543a6"><path d="M 0.621094 0.621094 L 1321.378906 0.621094 L 1321.378906 1321.378906 L 0.621094 1321.378906 Z M 0.621094 0.621094 " clip-rule="nonzero"/></clipPath><clipPath id="fb1e23fbfa"><path d="M 75.621094 0.621094 L 1246.378906 0.621094 C 1266.269531 0.621094 1285.34375 8.523438 1299.410156 22.589844 C 1313.476562 36.65625 1321.378906 55.730469 1321.378906 75.621094 L 1321.378906 1246.378906 C 1321.378906 1266.269531 1313.476562 1285.34375 1299.410156 1299.410156 C 1285.34375 1313.476562 1266.269531 1321.378906 1246.378906 1321.378906 L 75.621094 1321.378906 C 55.730469 1321.378906 36.65625 1313.476562 22.589844 1299.410156 C 8.523438 1285.34375 0.621094 1266.269531 0.621094 1246.378906 L 0.621094 75.621094 C 0.621094 55.730469 8.523438 36.65625 22.589844 22.589844 C 36.65625 8.523438 55.730469 0.621094 75.621094 0.621094 Z M 75.621094 0.621094 " clip-rule="nonzero"/></clipPath><clipPath id="d021f74142"><rect x="0" width="1322" y="0" height="1322"/></clipPath><clipPath id="0f47f4a34d"><path d="M 89.621094 89.621094 L 1410.371094 89.621094 L 1410.371094 1410.371094 L 89.621094 1410.371094 Z M 89.621094 89.621094 " clip-rule="nonzero"/></clipPath><clipPath id="0eb9eba160"><path d="M 164.621094 89.621094 L 1335.371094 89.621094 C 1355.265625 89.621094 1374.339844 97.523438 1388.40625 111.589844 C 1402.472656 125.65625 1410.371094 144.730469 1410.371094 164.621094 L 1410.371094 1335.371094 C 1410.371094 1355.265625 1402.472656 1374.339844 1388.40625 1388.40625 C 1374.339844 1402.472656 1355.265625 1410.371094 1335.371094 1410.371094 L 164.621094 1410.371094 C 144.730469 1410.371094 125.65625 1402.472656 111.589844 1388.40625 C 97.523438 1374.339844 89.621094 1355.265625 89.621094 1335.371094 L 89.621094 164.621094 C 89.621094 144.730469 97.523438 125.65625 111.589844 111.589844 C 125.65625 97.523438 144.730469 89.621094 164.621094 89.621094 Z M 164.621094 89.621094 " clip-rule="nonzero"/></clipPath></defs><g clip-path="url(#3348f88afb)"><g clip-path="url(#7792634225)"><g transform="matrix(1, 0, 0, 1, 89, 89)"><g clip-path="url(#d021f74142)"><g clip-path="url(#3e7ed543a6)"><g clip-path="url(#fb1e23fbfa)"><path fill="#ffe5c9" d="M 0.621094 0.621094 L 1321.378906 0.621094 L 1321.378906 1321.378906 L 0.621094 1321.378906 Z M 0.621094 0.621094 " fill-opacity="1" fill-rule="nonzero"/></g></g></g></g></g></g><g clip-path="url(#0f47f4a34d)"><g clip-path="url(#0eb9eba160)"><path stroke-linecap="butt" transform="matrix(0.75, 0, 0, 0.75, 89.622666, 89.622613)" fill="none" stroke-linejoin="miter" d="M 99.997912 -0.00202577 L 1660.998046 -0.00202577 C 1687.52409 -0.00202577 1712.956384 10.534433 1731.711594 29.289643 C 1750.466804 48.044853 1760.998055 73.477147 1760.998055 99.997983 L 1760.998055 1660.998117 C 1760.998055 1687.524161 1750.466804 1712.956455 1731.711594 1731.711665 C 1712.956384 1750.466875 1687.52409 1760.998126 1660.998046 1760.998126 L 99.997912 1760.998126 C 73.477076 1760.998126 48.044782 1750.466875 29.289572 1731.711665 C 10.534362 1712.956455 -0.00209691 1687.524161 -0.00209691 1660.998117 L -0.00209691 99.997983 C -0.00209691 73.477147 10.534362 48.044853 29.289572 29.289643 C 48.044782 10.534433 73.477076 -0.00202577 99.997912 -0.00202577 Z M 99.997912 -0.00202577 " stroke="#43554f" stroke-width="10" stroke-opacity="1" stroke-miterlimit="4"/></g></g><g fill="#43554f" fill-opacity="1"><g transform="translate(236.396497, 938.999899)"><g><path d="M 273.59375 6 L 94.796875 -458.40625 L 94.796875 -36.59375 L 152.40625 -12.59375 L 152.40625 0 L 24 0 L 24 -12.59375 L 80.40625 -36.59375 L 80.40625 -458.40625 L 25.203125 -466.796875 L 25.203125 -480 L 157.796875 -480 L 308.40625 -94.796875 L 462 -480 L 583.203125 -480 L 583.203125 -466.796875 L 528 -458.40625 L 528 -21.59375 L 583.203125 -12.59375 L 583.203125 0 L 406.796875 0 L 406.796875 -12.59375 L 462 -21.59375 L 462 -440.40625 L 284.40625 6 Z M 273.59375 6 "/></g></g></g><g fill="#43554f" fill-opacity="1"><g transform="translate(843.595327, 938.999899)"><g><path d="M 121.796875 0 L 121.796875 -12.59375 L 177 -21.59375 L 177 -465 L 78 -465 L 32.40625 -346.203125 L 15 -346.203125 L 15 -480 L 405.59375 -480 L 405.59375 -346.203125 L 387.59375 -346.203125 L 342.59375 -465 L 243 -465 L 243 -21.59375 L 298.203125 -12.59375 L 298.203125 0 Z M 121.796875 0 "/></g></g></g></svg>